<svg id="Layer_4" data-name="Layer 4" xmlns="http://www.w3.org/2000/svg" xmlns:xlink="http://www.w3.org/1999/xlink" width="468.56" height="530.08" viewBox="0 0 468.56 530.08">
  <defs>
    <style>
      .cls-1, .cls-15 {
        fill: none;
      }

      .cls-2 {
        fill: #688496;
        stroke-width: 2px;
      }

      .cls-15, .cls-2 {
        stroke: #000;
        stroke-miterlimit: 10;
      }

      .cls-3 {
        clip-path: url(#clip-path);
      }

      .cls-4 {
        fill: #d6d6d6;
      }

      .cls-5 {
        fill: #a3a3a3;
      }

      .cls-6 {
        fill: #3f3934;
      }

      .cls-7 {
        fill: #515151;
      }

      .cls-8 {
        fill: #444;
      }

      .cls-9 {
        fill: #964c1b;
      }

      .cls-10 {
        fill: #1e1e1e;
      }

      .cls-11 {
        fill: #ededed;
      }

      .cls-12 {
        fill: #0a0a0a;
      }

      .cls-13 {
        fill: #332a1b;
      }

      .cls-14 {
        fill: #231e15;
      }

      .cls-15 {
        stroke-width: 3px;
      }
    </style>
    <clipPath id="clip-path" transform="translate(0.05 -1.21)">
      <polygon class="cls-1" points="467.01 373.35 467.01 126.28 250.51 2.75 34 126.28 34 373.35 250.51 496.89 467.01 373.35"/>
    </clipPath>
  </defs>
  <g>
    <polygon class="cls-2" points="466.56 372.5 466.56 125.43 250.05 1.9 33.54 125.43 33.54 372.5 250.05 496.04 466.56 372.5"/>
    <g class="cls-3">
      <g>
        <g>
          <path class="cls-4" d="M257.9,530.29c-22.95,0-48.32-8.79-75.17-18.09-16.06-5.56-32.65-11.31-49.49-15.43-43.46-11.28-68-48.12-91.8-83.74-7-10.52-13.64-20.45-20.65-29.55-10.08-12.76-9.81-31.82-9.52-52,.2-14.07.41-28.62-2.85-42C-6.66,238.77,3.85,193.69,14.73,160c24.63-26.73,51.07-47,78.58-60.25,26-12.51,53-18.85,80.37-18.85,34.82,0,69.59,10.08,103.34,30,32.46,19.12,62.43,46.33,89.09,80.87l.25.32.4.06c24.69,3.68,64.14,21.07,85.78,32.39-30.94,18.13-61.12,29.36-92.19,34.33l-1,.16.18,1c7.28,40.35-34.9,167.68-73.3,264.64a68.28,68.28,0,0,1-28.31,5.62Z" transform="translate(0.05 -1.21)"/>
          <path d="M173.68,81.94c34.64,0,69.24,10,102.84,29.83,32.34,19,62.22,46.17,88.8,80.61l.49.64.8.11c24,3.59,62,20.17,83.85,31.46-30.28,17.53-59.84,28.43-90.27,33.29l-2,.32.36,2c3.64,20.15-4.35,62.14-23.74,124.81-18.09,58.47-40.31,116.07-49.35,138.9a67.5,67.5,0,0,1-27.54,5.37c-22.78,0-48.07-8.76-74.85-18-16.07-5.57-32.69-11.33-49.55-15.45-19.23-5-36.56-15.69-53-32.7C66,448,53.92,429.94,42.27,412.47c-7-10.53-13.66-20.47-20.7-29.62-9.85-12.47-9.58-31.36-9.3-51.35.2-14.13.41-28.74-2.88-42.29v0l0-.05a180.79,180.79,0,0,1-6.72-67.77c1.58-18.93,5.7-38.25,13-60.79C40.12,134,66.4,113.86,93.75,100.69c25.81-12.44,52.7-18.75,79.93-18.75m0-2c-53.53,0-108.66,24-159.83,79.58C1.37,198.05-6.73,242,7.45,289.68c7.92,32.62-4.83,72.4,12.55,94.41C50.61,423.81,76.19,483,133,497.74c44.87,11,87.95,33.55,124.9,33.55a69.57,69.57,0,0,0,29.1-5.87c26.05-65.74,82-218.55,73.5-265.57,33.86-5.4,64.89-18,94.09-35.35C431,212,391.44,194.82,366.91,191.16c-52.51-68-121.42-111.22-193.23-111.22Z" transform="translate(0.05 -1.21)"/>
        </g>
        <path class="cls-5" d="M315.72,230c-69.63,68.1-133.09,109.13-162.35.45Z" transform="translate(0.05 -1.21)"/>
        <path class="cls-6" d="M423.61,221.36c-27.79-7.25-57.75-9.94-89.37-9.13-91.06-7.23-178.06-10.5-259-7.9a134.49,134.49,0,0,0-39,0c35.63,19.77,72.93,34.16,117.17,26.15H335.19C371.06,231.11,400.4,228,423.61,221.36Z" transform="translate(0.05 -1.21)"/>
        <path class="cls-7" d="M454.59,224.5H345.07q.54-16.68,21.84-33.34C397.46,197.35,426.45,209.34,454.59,224.5Z" transform="translate(0.05 -1.21)"/>
        <path class="cls-8" d="M455,224.61c-30.81,15.63-62.09,28-94.09,35.36A69.34,69.34,0,0,0,344,250.82a40.58,40.58,0,0,0,1-26.32Z" transform="translate(0.05 -1.21)"/>
        <path class="cls-9" d="M354.49,176.54C248,148,146.07,135.82,50.43,146c-7-9.07,3-21.35,21.65-35.23C172.55,49.69,265.85,82.63,354.49,176.54Z" transform="translate(0.05 -1.21)"/>
        <path class="cls-10" d="M361.92,195.31A235.09,235.09,0,0,1,323,168.56c-11.5-15.81-11.34-23.09,15.15-10.79l29.17,33.5Z" transform="translate(0.05 -1.21)"/>
        <path class="cls-10" d="M359.43,197.57A235.76,235.76,0,0,1,317,176.69c-13.71-14-14.62-21.21,13.4-12.84l33.79,29Z" transform="translate(0.05 -1.21)"/>
        <path d="M174.09,83.06c34.46,0,68.89,10,102.33,29.68,32.23,19,62,46,88.52,80.36l.74,1,1.19.18c21.09,3.15,56.1,17.3,81.92,30.52-29.62,16.93-58.57,27.49-88.35,32.25l-3,.48.54,3c8.71,48.25-52.51,208.7-72.3,258.71-8.43,3.62-18,5.38-29.27,5.38-25.69,0-56.21-9.52-85.73-18.72-14.84-4.62-30.18-9.41-44.91-13-40.81-10.59-59.5-40.71-79.29-72.6-6.88-11.09-14-22.56-22.11-33.09-9.78-12.38-9.93-32.92-10.1-54.66-.11-14.76-.22-30-3.48-43.42l0-.07,0-.08a179.86,179.86,0,0,1-6.68-67.4c1.57-18.79,5.66-38,12.86-60.36,24.38-26.38,50.51-46.39,77.68-59.48,25.68-12.37,52.43-18.64,79.5-18.64m0-3c-53.53,0-108.66,24-159.83,79.57C1.78,198.16-6.32,242.13,7.86,289.8,15.78,322.41,4.62,367,22,389c30.61,39.72,46.19,92,103,106.74,44.33,10.83,92.3,31.82,131.39,31.82,11.39,0,22-1.79,31.61-6.13C314.05,455.72,369.4,307,360.91,260c33.86-5.41,64.89-18.05,94.09-35.36-23.56-12.51-63.15-29.67-87.68-33.34-52.51-68-121.42-111.21-193.23-111.21Z" transform="translate(0.05 -1.21)"/>
        <path class="cls-11" d="M289.21,230c-22.47,32.6-46.54,30.69-71.95,0Z" transform="translate(0.05 -1.21)"/>
        <path class="cls-12" d="M367.71,201.22a24.11,24.11,0,0,1-.29,15.7,2.17,2.17,0,0,1-1.51,1.36c-2.69.68-5.92.13-9.36-.92a2.2,2.2,0,0,1-1.45-2.85c1.76-4.79,4.94-9.45,8.73-14A2.25,2.25,0,0,1,367.71,201.22Z" transform="translate(0.05 -1.21)"/>
        <path class="cls-13" d="M289.12,218.55a1.8,1.8,0,0,0,.09-.45,3.18,3.18,0,0,0-.76-1.86,76.09,76.09,0,0,0-14.08-15.31A32.7,32.7,0,0,0,258,193.38c-7.93-1-15.47,1.71-22.07,5.9a76,76,0,0,0-11.44,8.3c-6.73,6.29.18,14.26,4.39,20.19,5.26,7.4,12.44,13.93,22,14.51,8.23.5,15.71-3,22.08-7.88a89.51,89.51,0,0,0,9-8.16c2.25-2.26,4.84-4.07,6.65-6.73A4,4,0,0,0,289.12,218.55Z" transform="translate(0.05 -1.21)"/>
        <ellipse class="cls-14" cx="254.91" cy="216.61" rx="15.09" ry="14.91"/>
      </g>
    </g>
    <polygon class="cls-15" points="467.06 372.33 467.06 125.26 250.56 1.73 34.05 125.26 34.05 372.33 250.56 495.86 467.06 372.33"/>
  </g>
</svg>
