<svg xmlns="http://www.w3.org/2000/svg" xmlns:xlink="http://www.w3.org/1999/xlink" width="492.01" height="491.18" viewBox="0 0 492.01 491.18">
  <defs>
    <style>
      .cls-1, .cls-15 {
        fill: none;
      }

      .cls-2 {
        fill: #688496;
        stroke-width: 2px;
      }

      .cls-15, .cls-2 {
        stroke: #000;
        stroke-miterlimit: 10;
      }

      .cls-3 {
        clip-path: url(#clip-path);
      }

      .cls-4 {
        fill: #d6d6d6;
      }

      .cls-5 {
        fill: #a3a3a3;
      }

      .cls-6 {
        fill: #3f3934;
      }

      .cls-7 {
        fill: #515151;
      }

      .cls-8 {
        fill: #444;
      }

      .cls-9 {
        fill: #964c1b;
      }

      .cls-10 {
        fill: #1e1e1e;
      }

      .cls-11 {
        fill: #ededed;
      }

      .cls-12 {
        fill: #0a0a0a;
      }

      .cls-13 {
        fill: #332a1b;
      }

      .cls-14 {
        fill: #231e15;
      }

      .cls-15 {
        stroke-width: 3px;
      }
    </style>
    <clipPath id="clip-path" transform="translate(-2.51 -5.48)">
      <circle class="cls-1" cx="250" cy="250" r="243.02"/>
    </clipPath>
  </defs>
  <g id="Layer_2" data-name="Layer 2">
    <circle class="cls-2" cx="247.49" cy="244.52" r="243.02"/>
  </g>
  <g id="Layer_3" data-name="Layer 3">
    <g class="cls-3">
      <g>
        <g>
          <path class="cls-4" d="M249.62,495.53a263.77,263.77,0,0,1-63.14-8.06c-55-14.44-99.36-44.64-135.67-92.32C32.36,371.52,20,350.91,11.51,315.48c-16.16-55-4.89-103.86,6.78-140.36,26.4-29,54.73-51,84.22-65.34,27.81-13.56,56.79-20.44,86.12-20.44,37.32,0,74.59,10.93,110.76,32.49,34.78,20.73,66.9,50.23,95.47,87.68l.24.32.4.06c26.52,4,68.9,22.93,92.06,35.21-33.2,19.7-65.58,31.9-98.93,37.29l-1,.16.18,1c8.88,49.78-15.78,118.86-44.12,191.25-30.52,13.94-61.3,20.72-94.07,20.72Z" transform="translate(-2.51 -5.48)"/>
          <path d="M188.63,90.34c37.14,0,74.23,10.89,110.25,32.35,34.66,20.66,66.69,50.08,95.18,87.43l.49.64.8.12c25.81,3.9,66.76,22,90.16,34.27-32.55,19.1-64.33,31-97,36.26l-2,.32.35,2c4.07,22.83,1.38,51.49-8.25,87.61-8.88,33.37-22.47,69-35.66,102.73a220.94,220.94,0,0,1-93.29,20.46,263,263,0,0,1-62.88-8c-29.13-7.66-54.64-19.39-78-35.89-21-14.87-39.74-33.21-57.16-56.09C33.24,371,21,350.5,12.49,315.25l0-.05v-.05a198.29,198.29,0,0,1-7.2-73.54c1.69-20.54,6.11-41.52,13.91-66,26.27-28.81,54.46-50.66,83.78-65,27.67-13.49,56.5-20.33,85.68-20.33m0-2c-57.34,0-116.41,26-171.23,86.27C4,216.38-4.65,264,10.54,315.72,19,351.07,31.39,371.9,50,395.76c32.79,43.06,75.36,76.69,136.23,92.68a263.06,263.06,0,0,0,63.38,8.09,224.22,224.22,0,0,0,94.85-21c27.91-71.26,53.41-141.2,44.32-192.17,36.28-5.86,69.52-19.56,100.8-38.33-25.24-13.57-67.65-32.17-93.94-36.14-56.25-73.74-130.08-120.57-207-120.57Z" transform="translate(-2.51 -5.48)"/>
        </g>
        <path class="cls-5" d="M340.82,251c-74.61,73.83-142.59,118.32-173.95.49Z" transform="translate(-2.51 -5.48)"/>
        <path class="cls-6" d="M456.41,241.65c-29.78-7.86-61.87-10.78-95.76-9.9-97.55-7.83-190.76-11.39-277.46-8.56a142.46,142.46,0,0,0-41.85,0c38.18,21.43,78.14,37,125.53,28.34h194.8C400.1,252.22,431.53,248.84,456.41,241.65Z" transform="translate(-2.51 -5.48)"/>
        <path class="cls-7" d="M489.59,245.05H372.26q.58-18.08,23.39-36.14C428.39,215.62,459.45,228.62,489.59,245.05Z" transform="translate(-2.51 -5.48)"/>
        <path class="cls-8" d="M490,245.17c-33,16.94-66.51,30.37-100.8,38.34a74.07,74.07,0,0,0-18.08-9.93,44.46,44.46,0,0,0,1.11-28.53Z" transform="translate(-2.51 -5.48)"/>
        <path class="cls-9" d="M382.35,193.06c-114.1-30.9-223.29-44.14-325.75-33.15-7.55-9.84,3.21-23.14,23.19-38.19C187.43,55.54,287.38,91.26,382.35,193.06Z" transform="translate(-2.51 -5.48)"/>
        <path class="cls-10" d="M390.31,213.41a251.64,251.64,0,0,1-41.69-29c-12.33-17.14-12.16-25,16.22-11.7L396.09,209Z" transform="translate(-2.51 -5.48)"/>
        <path class="cls-10" d="M387.65,215.86a251.07,251.07,0,0,1-45.47-22.63c-14.69-15.17-15.66-23,14.35-13.93l36.2,31.39Z" transform="translate(-2.51 -5.48)"/>
        <path d="M189.07,91.47c37,0,73.88,10.83,109.73,32.21,34.56,20.59,66.49,49.92,94.91,87.17l.73,1,1.2.18c25.11,3.79,64.68,21.13,88.24,33.32-31.9,18.51-63.07,30-95.12,35.22l-3,.49.54,3c4,22.68,1.35,51.2-8.23,87.18-8.84,33.19-22.35,68.67-35.49,102.24a219.77,219.77,0,0,1-92.5,20.21,261.8,261.8,0,0,1-62.62-8c-29-7.62-54.42-19.31-77.67-35.73-21-14.81-39.58-33.08-56.95-55.89-18.27-23.41-30.5-43.82-38.92-78.9l0-.07,0-.07a197.43,197.43,0,0,1-7.17-73.18c1.68-20.41,6.07-41.25,13.81-65.55,26.14-28.64,54.18-50.36,83.33-64.57C131.36,98.27,160,91.47,189.07,91.47m0-3c-57.34,0-116.41,26-171.23,86.26C4.47,216.5-4.21,264.17,11,315.84c8.49,35.36,20.85,56.18,39.47,80,32.79,43.06,75.36,76.7,136.23,92.69a263.56,263.56,0,0,0,63.38,8.09,224.33,224.33,0,0,0,94.85-21c27.91-71.27,53.41-141.21,44.32-192.17,36.28-5.87,69.52-19.57,100.8-38.34C464.79,231.61,422.38,213,396.09,209,339.84,135.3,266,88.47,189.07,88.47Z" transform="translate(-2.51 -5.48)"/>
        <path class="cls-11" d="M312.41,251c-24.07,35.35-49.86,33.28-77.08,0Z" transform="translate(-2.51 -5.48)"/>
        <path class="cls-12" d="M396.52,219.81a26.46,26.46,0,0,1-.32,17,2.37,2.37,0,0,1-1.61,1.47c-2.88.74-6.34.14-10-1a2.41,2.41,0,0,1-1.56-3.1c1.89-5.19,5.3-10.24,9.36-15.23A2.41,2.41,0,0,1,396.52,219.81Z" transform="translate(-2.51 -5.48)"/>
        <path class="cls-13" d="M312.31,238.6a1.64,1.64,0,0,0,.1-.49,3.41,3.41,0,0,0-.81-2,81.83,81.83,0,0,0-15.09-16.6c-5.06-4.17-11-7.34-17.57-8.18-8.5-1.08-16.58,1.85-23.65,6.39a81.85,81.85,0,0,0-12.26,9c-7.21,6.82.19,15.46,4.7,21.89,5.63,8,13.34,15.1,23.59,15.73,8.81.54,16.83-3.25,23.65-8.54a97.65,97.65,0,0,0,9.68-8.85c2.4-2.45,5.18-4.41,7.12-7.3A4.29,4.29,0,0,0,312.31,238.6Z" transform="translate(-2.51 -5.48)"/>
        <circle class="cls-14" cx="273.1" cy="232.34" r="16.17"/>
      </g>
    </g>
    <circle class="cls-15" cx="247.49" cy="244.52" r="243.02"/>
  </g>
</svg>
